<svg width="20%" height="20%" viewBox="0 0 18 18" fill="none" xmlns="http://www.w3.org/2000/svg">
<path d="M7.7475 12.4447H3.02197" stroke="#4C837A" stroke-width="1.5" stroke-linecap="round" stroke-linejoin="round"/>
<path d="M9.85547 5.17529H14.581" stroke="#4C837A" stroke-width="1.5" stroke-linecap="round" stroke-linejoin="round"/>
<path fill-rule="evenodd" clip-rule="evenodd" d="M6.54472 5.13469C6.54472 4.16295 5.7511 3.375 4.77236 3.375C3.79362 3.375 3 4.16295 3 5.13469C3 6.10643 3.79362 6.89438 4.77236 6.89438C5.7511 6.89438 6.54472 6.10643 6.54472 5.13469Z" stroke="#4C837A" stroke-width="1.5" stroke-linecap="round" stroke-linejoin="round"/>
<path fill-rule="evenodd" clip-rule="evenodd" d="M15 12.4154C15 11.4436 14.2071 10.6556 13.2283 10.6556C12.249 10.6556 11.4553 11.4436 11.4553 12.4154C11.4553 13.3871 12.249 14.175 13.2283 14.175C14.2071 14.175 15 13.3871 15 12.4154Z" stroke="#4C837A" stroke-width="1.5" stroke-linecap="round" stroke-linejoin="round"/>
</svg>
